# xmcd CD database file
#
# Track frame offsets:
#	150
#	25933
#	48729
#	74352
#	96703
#	125257
#	148655
#	177820
#
# Disc length: 2825 seconds
#
# Revision: 0
# Processed by: cddbd v1.5.2PL0 Copyright (c) Steve Scherf et al.
# Submitted via: CDex 1.51
#
DISCID=760b0708
DTITLE=George Dulin Disband - Ride of Your Life
DYEAR=2005
DGENRE=Jazz
TTITLE0=Stingray Road
TTITLE1=Ella's Night-light
TTITLE2=Cerebral Dong Nosh
TTITLE3=John Sugar VII
TTITLE4=Seawatch
TTITLE5=I Forgot, April
TTITLE6=F.M. Downward Spiral
TTITLE7=Waltz for Miwa
EXTD=YEAR: 2005
EXTT0=
EXTT1=
EXTT2=
EXTT3=
EXTT4=
EXTT5=
EXTT6=
EXTT7=
PLAYORDER=
